<svg width="39" height="9" viewBox="0 0 39 9" fill="none" xmlns="http://www.w3.org/2000/svg">
<path d="M4.07 0.14H3.14C3.18 0.37 3.2 0.74 3.2 0.97C3.18 4.13 2.36 5.82 1.11 6.95C0.81 7.23 0.41 7.51 0.09 7.68L0.82 8.27C2.79 6.9 3.89 5.03 4.02 0.95C4.03 0.71 4.05 0.37 4.07 0.14ZM7.55 2.22L6.98 1.93C6.81 1.96 6.62 1.98 6.35 1.98H1.41C1.02 1.98 0.61 1.96 0.26 1.93V2.77C0.62 2.74 1.02 2.73 1.42 2.73H6.69C6.69 3.8 6.56 6.26 6.18 7.03C6.07 7.27 5.88 7.36 5.6 7.36C5.17 7.36 4.65 7.31 4.11 7.24L4.21 8.07C4.73 8.11 5.31 8.14 5.81 8.14C6.36 8.14 6.68 7.96 6.88 7.53C7.33 6.57 7.46 3.67 7.49 2.7C7.5 2.57 7.52 2.39 7.55 2.22ZM13.55 0.49L12.79 0.74C13.04 1.27 13.6 2.81 13.77 3.38L14.55 3.11C14.38 2.55 13.77 0.959999 13.55 0.49ZM18 1.13L17.07 0.86C16.88 2.37 16.26 3.97 15.47 4.98C14.46 6.26 12.97 7.22 11.55 7.64L12.23 8.33C13.65 7.83 15.12 6.8 16.15 5.44C16.98 4.36 17.51 2.94 17.82 1.69C17.86 1.54 17.93 1.29 18 1.13ZM10.76 1.09L9.98 1.37C10.21 1.81 10.9 3.5 11.09 4.12L11.89 3.83C11.65 3.17 11.03 1.65 10.76 1.09ZM25.56 0.81L25 1.05C25.33 1.5 25.65 2.05 25.9 2.58L26.47 2.32C26.24 1.84 25.81 1.17 25.56 0.81ZM26.76 0.309999L26.22 0.57C26.55 1.01 26.88 1.54 27.14 2.07L27.7 1.79C27.47 1.32 27.03 0.66 26.76 0.309999ZM22.05 7.25C22.05 7.63 22.03 8.12 21.98 8.44H22.95C22.91 8.11 22.89 7.57 22.89 7.25C22.89 6.78 22.88 3 22.88 1.44C22.88 1.14 22.92 0.7 22.95 0.399999H21.97C22.02 0.71 22.05 1.15 22.05 1.44C22.05 2.28 22.05 6.7 22.05 7.25ZM22.7 3.02V3.9C23.79 4.24 25.66 4.95 26.8 5.56L27.15 4.72C26.04 4.17 24.03 3.4 22.7 3.02ZM31.27 0.679999L30.69 1.29C31.44 1.78 32.68 2.86 33.19 3.38L33.81 2.74C33.26 2.19 31.97 1.15 31.27 0.679999ZM30.41 7.38L30.93 8.2C32.6 7.89 33.86 7.27 34.87 6.64C36.38 5.69 37.54 4.33 38.22 3.09L37.74 2.23C37.16 3.47 35.95 4.95 34.4 5.92C33.45 6.51 32.15 7.12 30.41 7.38Z" fill="white"/>
</svg>
